<?xml version="1.0" encoding="UTF-8" standalone="no"?>
<!-- Created with Inkscape (http://www.inkscape.org/) -->

<svg
   width="166.59949mm"
   height="50.957291mm"
   viewBox="0 0 166.59949 50.957291"
   version="1.1"
   id="svg1"
   sodipodi:docname="logo-full.svg"
   xml:space="preserve"
   inkscape:version="1.4.3 (0d15f75042, 2025-12-25)"
   xmlns:inkscape="http://www.inkscape.org/namespaces/inkscape"
   xmlns:sodipodi="http://sodipodi.sourceforge.net/DTD/sodipodi-0.dtd"
   xmlns="http://www.w3.org/2000/svg"
   xmlns:svg="http://www.w3.org/2000/svg"><sodipodi:namedview
     id="namedview1"
     pagecolor="#505050"
     bordercolor="#eeeeee"
     borderopacity="1"
     inkscape:showpageshadow="0"
     inkscape:pageopacity="0"
     inkscape:pagecheckerboard="0"
     inkscape:deskcolor="#505050"
     inkscape:document-units="mm"
     showgrid="true"
     inkscape:zoom="0.57665263"
     inkscape:cx="407.52437"
     inkscape:cy="150.87072"
     inkscape:window-width="1908"
     inkscape:window-height="1036"
     inkscape:window-x="0"
     inkscape:window-y="0"
     inkscape:window-maximized="1"
     inkscape:current-layer="layer1"><inkscape:grid
       id="grid1"
       units="mm"
       originx="-21.417749"
       originy="-149.4722"
       spacingx="0.99999998"
       spacingy="1"
       empcolor="#0099e5"
       empopacity="0.30196078"
       color="#0099e5"
       opacity="0.14901961"
       empspacing="5"
       enabled="true"
       visible="true" /><inkscape:page
       x="0"
       y="0"
       width="166.59949"
       height="50.957291"
       id="page2"
       margin="0"
       bleed="0" /></sodipodi:namedview><defs
     id="defs1" /><g
     inkscape:label="Layer 1"
     inkscape:groupmode="layer"
     id="layer1"
     transform="translate(-21.417749,-149.47219)"><path
       style="font-weight:850;font-size:36.3325px;font-family:Garet;-inkscape-font-specification:'Garet weight=850';letter-spacing:-1.84971px;stroke-width:0.136247"
       d="m 84.82315,164.48516 h 12.571045 q 3.197265,0 5.522545,1.1263 2.36161,1.12631 3.59691,3.2336 1.27164,2.10728 1.27164,4.97755 0,2.50694 -0.98098,4.4689 -0.94464,1.92562 -2.76127,3.12459 l 4.25091,8.50181 H 98.6295 l -3.015597,-6.75785 H 93.54295 v 6.75785 h -8.7198 z m 11.154078,12.20772 q 1.4533,0 2.216282,-0.69032 0.799315,-0.72665 0.799315,-2.03462 0,-1.3443 -0.799315,-2.03462 Q 97.430528,171.243 95.977228,171.243 H 93.39762 v 5.44988 z m 21.148752,13.77002 q -3.74224,0 -5.92219,-2.25262 -2.14362,-2.25261 -2.14362,-6.14019 v -11.51741 h 8.28381 v 10.5001 q 0,1.3443 0.58132,2.03462 0.58132,0.69032 1.67129,0.69032 1.08998,0 1.70763,-0.72665 0.61765,-0.72665 0.61765,-2.10729 v -10.3911 h 8.28381 v 19.36523 h -5.92219 l -0.79932,-2.03462 q -1.12631,1.2353 -2.76127,1.92562 -1.63496,0.65399 -3.59692,0.65399 z m 15.3356,-19.91022 h 5.88586 l 0.76299,1.96196 q 1.1263,-1.19897 2.65227,-1.81663 1.5623,-0.65398 3.41525,-0.65398 1.96196,0 3.56059,0.72665 1.59863,0.72665 2.61594,2.10729 1.16264,-1.38064 2.83393,-2.10729 1.70763,-0.72665 3.85125,-0.72665 2.39794,0 4.21457,1.01731 1.81662,1.01731 2.7976,2.9066 1.01731,1.85296 1.01731,4.3599 v 11.59007 h -8.28381 v -10.57276 q 0,-1.2353 -0.61765,-1.92562 -0.58132,-0.72665 -1.63496,-0.72665 -1.05365,0 -1.6713,0.72665 -0.58132,0.69032 -0.58132,1.96195 v 10.53643 h -8.02948 v -10.57276 q 0,-1.2353 -0.61765,-1.92562 -0.58132,-0.72665 -1.63497,-0.72665 -1.05364,0 -1.67129,0.72665 -0.58132,0.69032 -0.58132,1.96195 v 10.53643 h -8.28381 z m 42.03997,19.83755 q -3.37892,0 -5.34087,-1.63496 -1.96196,-1.63496 -1.96196,-4.43257 0,-2.6886 1.78029,-4.28723 1.7803,-1.63496 4.79589,-1.63496 h 6.17653 v -1.16264 q 0,-0.72665 -0.61765,-1.19898 -0.58132,-0.50865 -1.48964,-0.50865 -0.83564,0 -1.41696,0.43599 -0.58132,0.43599 -0.65399,1.16264 h -7.62982 q 0.43599,-3.48792 2.9066,-5.26822 2.50694,-1.81662 6.83051,-1.81662 4.90488,0 7.52082,2.28895 2.61594,2.28895 2.61594,6.64885 v 10.93608 h -5.92219 l -0.83565,-2.10729 q -1.23531,1.27164 -2.97927,1.92563 -1.70762,0.65398 -3.77858,0.65398 z m 0.61766,-6.64885 q 0,0.69032 0.54498,1.12631 0.54499,0.39966 1.48964,0.39966 1.30797,0 2.10728,-0.76298 0.79932,-0.76299 0.79932,-2.03462 v -0.25433 h -2.9066 q -0.94465,0 -1.48964,0.43599 -0.54498,0.39966 -0.54498,1.08997 z"
       id="text1"
       aria-label="Ruma"
       inkscape:export-filename="logo-full.svg"
       inkscape:export-xdpi="96"
       inkscape:export-ydpi="96" /><path
       style="fill:#000000;stroke:none;stroke-width:3.04062"
       d="m 60.033081,181.74868 11.631797,-5.19558 c 1.239832,-0.48211 2.252535,-3.87255 1.412087,-5.26881 -0.726413,-0.95132 -11.717384,-13.39151 -11.717384,-13.39151 0,0 -1.547583,-1.20743 -4.263741,-0.58543 -2.716161,0.62201 -6.381792,1.75897 -13.309304,3.821 -0.548151,0.16316 -1.027305,1.24187 0.04467,1.96628 1.07197,0.72442 14.918266,9.83144 14.918266,9.83144 0,0 0.803978,0.31046 0.133998,2.38025 -0.669984,2.06978 -1.295299,4.0878 -1.295299,4.0878 0,0 -0.323813,1.03526 0.759313,2.06978 0.679712,0.64921 1.685599,0.28478 1.685599,0.28478 z"
       id="path2"
       sodipodi:nodetypes="ccscssccscscc" /><path
       style="fill:#000000;stroke:none;stroke-width:3.04062"
       d="m 50.606894,172.91468 -11.631797,5.19558 c -1.239832,0.48211 -2.252535,3.87255 -1.412087,5.26881 0.726413,0.95132 11.717384,13.39151 11.717384,13.39151 0,0 1.547583,1.20743 4.263741,0.58543 2.716161,-0.62201 6.381792,-1.75897 13.309304,-3.821 0.548151,-0.16316 1.027305,-1.24187 -0.04467,-1.96628 -1.07197,-0.72442 -14.918266,-9.83144 -14.918266,-9.83144 0,0 -0.803978,-0.31046 -0.133998,-2.38025 0.669984,-2.06978 1.295299,-4.0878 1.295299,-4.0878 0,0 0.323813,-1.03526 -0.759313,-2.06978 -0.679712,-0.64921 -1.685599,-0.28478 -1.685599,-0.28478 z"
       id="path2-9"
       sodipodi:nodetypes="ccscssccscscc" /></g></svg>
